<svg width="13" height="22" viewBox="0 0 13 22" fill="none" xmlns="http://www.w3.org/2000/svg">
<path d="M2.79855 1.24348C2.38073 0.802455 1.68451 0.783638 1.24348 1.20145C0.802455 1.61927 0.783638 2.31549 1.20145 2.75652L2.79855 1.24348ZM11 11.5L11.7778 12.2778C12.1992 11.8564 12.2084 11.1761 11.7985 10.7435L11 11.5ZM1.22218 19.7222C0.792606 20.1518 0.792606 20.8482 1.22218 21.2778C1.65176 21.7074 2.34824 21.7074 2.77782 21.2778L1.22218 19.7222ZM1.20145 2.75652L10.2015 12.2565L11.7985 10.7435L2.79855 1.24348L1.20145 2.75652ZM10.2222 10.7222L1.22218 19.7222L2.77782 21.2778L11.7778 12.2778L10.2222 10.7222Z" fill="white"/>
</svg>
