<svg xmlns="http://www.w3.org/2000/svg" viewBox="0 0 167.95 141.31"><defs><style>.cls-1{fill:#c7def9;}.cls-2{fill:#44688c;}.cls-3{fill:#9c789e;}.cls-4{fill:#fff;}.cls-5{fill:#0f0f0f;}.cls-6{fill:#748fb7;opacity:0.3;}.cls-7{fill:#4c759e;}.cls-8{fill:none;stroke:#4c759e;stroke-miterlimit:10;}.cls-9{font-size:16.32px;}.cls-10,.cls-9{fill:#fc9130;font-family:KoPubWorldDotumMedium, KoPubWorldDotum;}.cls-10{font-size:9.73px;}</style></defs><g id="Layer_2" data-name="Layer 2"><g id="Layer_1-2" data-name="Layer 1"><path class="cls-1" d="M36.11,129.13A23.64,23.64,0,0,1,11.21,134C4.7,131.48,1.94,126.11.9,120.85a23.05,23.05,0,0,1,5.06-19A193.36,193.36,0,0,0,24.71,73.71c11.67-36.68,45-40.94,45-40.94s33-7.72,54.71,17.79A66.17,66.17,0,0,0,137.55,62.2,137.69,137.69,0,0,0,155.81,73c12.86,6,11.61,22.13,11.61,22.13s-1.14,12.57-16.7,17.13c0,0-9,2.15-13.68-2.65"/><path class="cls-2" d="M21,136.09a24.89,24.89,0,0,1-10-1.68,15.64,15.64,0,0,1-7.43-5.68,20.06,20.06,0,0,1-3.19-7.79,23.47,23.47,0,0,1,5.16-19.41,193.28,193.28,0,0,0,18.67-28,63.09,63.09,0,0,1,12-22A57.87,57.87,0,0,1,51.34,39.06a55.14,55.14,0,0,1,18.29-6.77A63,63,0,0,1,89,31.61a58.05,58.05,0,0,1,17.94,5,52.36,52.36,0,0,1,17.87,13.66,65.87,65.87,0,0,0,13,11.55A132.45,132.45,0,0,0,156,72.56a18.87,18.87,0,0,1,7.43,6.16,23,23,0,0,1,3.46,7.48,29.17,29.17,0,0,1,1,9,18.51,18.51,0,0,1-2.59,7.07,21.64,21.64,0,0,1-5.13,5.81,27.33,27.33,0,0,1-9.34,4.68h0a23.1,23.1,0,0,1-5.23.49c-3.84-.09-6.93-1.22-8.92-3.28l.7-.68c4.33,4.47,12.85,2.59,13.21,2.51,7.87-2.31,11.9-6.74,13.89-10.05a17.82,17.82,0,0,0,2.45-6.64,29.06,29.06,0,0,0-1-8.67c-1.69-6.19-5.17-10.55-10.36-13a134.89,134.89,0,0,1-18.33-10.85A67.51,67.51,0,0,1,124,50.88C112.93,37.83,98.78,33.73,88.87,32.59a62.1,62.1,0,0,0-19,.66h0a54.08,54.08,0,0,0-18,6.67C43,45.05,31.15,55.08,25.18,73.86l0,0,0,0a194.35,194.35,0,0,1-18.8,28.21,22.53,22.53,0,0,0-5,18.6c1.28,6.42,4.64,10.71,10,12.74a23.11,23.11,0,0,0,24.36-4.7l.71.68a23.24,23.24,0,0,1-7,4.64,23.59,23.59,0,0,1-8,2Z"/><path class="cls-1" d="M22.47,92.58S20.75,157,93.09,137c0,0,64.18-10.75,44.44-63.77"/><path class="cls-2" d="M70.94,141.24c-13,.58-23.58-2.32-31.72-8.69A40,40,0,0,1,29,120.36a53.55,53.55,0,0,1-5.08-13.07A61.09,61.09,0,0,1,22,92.57l1,0a59.43,59.43,0,0,0,1.86,14.48c1.85,7.36,6,17.62,15,24.7,8,6.22,18.35,9.05,31.06,8.48A100.7,100.7,0,0,0,93,136.5H93a86.14,86.14,0,0,0,17-5.23c8.43-3.57,19.78-10.09,26-20.88,6-10.33,6.3-22.78,1-37L138,73c5.4,14.52,5,27.25-1.08,37.84a44.21,44.21,0,0,1-12.07,13.18,69.11,69.11,0,0,1-14.44,8.12,86.68,86.68,0,0,1-17.2,5.28A101.82,101.82,0,0,1,70.94,141.24Z"/><circle class="cls-3" cx="125.28" cy="100.19" r="8.08"/><circle class="cls-3" cx="42.69" cy="115.42" r="8.08"/><circle class="cls-4" cx="62.79" cy="91.62" r="13.14"/><path class="cls-2" d="M63.38,105.14a13.54,13.54,0,1,1,12.84-15.2h0a13.52,13.52,0,0,1-11.74,15.11A10.4,10.4,0,0,1,63.38,105.14ZM62.24,78.88c-.34,0-.69.05-1,.09A12.75,12.75,0,1,0,72.86,99.44,12.75,12.75,0,0,0,62.24,78.88Z"/><circle class="cls-5" cx="67.77" cy="92.25" r="6.9"/><path class="cls-6" d="M151.31,92.56c-2.76,1.4-7.11,4.51-6.4,10a4.6,4.6,0,0,0,3.91,3.95c2.55.35,6.17-.16,8.94-4.62,3.08-5,.3-7.81-2-9.18A4.63,4.63,0,0,0,151.31,92.56Z"/><path class="cls-6" d="M15.53,117.59c2.35-.1,5.59.76,7.92,5.34a5.42,5.42,0,0,1-2.37,7.36c-2,1-4.74,1.19-8.24-1.09-3-3.17-2.79-6.16-2-8.2A5.27,5.27,0,0,1,15.53,117.59Z"/><path class="cls-4" d="M93.74,38.53c1.56-1,18,3.55,18.83,10.91.19,1.74-6.44.63-6.65-.63-.43-2.52-10.69-7.81-12.72-7.5C88.5,42,92.35,37.47,93.74,38.53Z"/><path class="cls-7" d="M53.39,68.19a.49.49,0,0,1,0-1L67,67a.49.49,0,1,1,0,1l-13.53.23Z"/><path class="cls-7" d="M82.53,66.15A.51.51,0,0,1,82,65.9a.49.49,0,0,1,.21-.66l11.37-5.95a.5.5,0,0,1,.66.21.48.48,0,0,1-.21.66l-11.37,6Z"/><circle class="cls-4" cx="70.32" cy="87.34" r="1.41"/><path class="cls-3" d="M91.51,105.76c.21.72-3.19,2.74-7.76,4s-8.58,1.33-8.78.6,3.88-.47,8.44-1.75S91.31,105,91.51,105.76Z"/><path class="cls-7" d="M85.33,90.75A9.19,9.19,0,0,1,88.94,84a10.57,10.57,0,0,1,8.3-1.38,7,7,0,0,1,5.12,4.5c.16.45.89.26.72-.2-1.49-4-5.44-5.62-9.52-5.28a9.44,9.44,0,0,0-8.11,5.66,10.24,10.24,0,0,0-.87,3.48c0,.48.73.48.75,0Z"/><line class="cls-8" x1="127.24" y1="33.57" x2="137.96" y2="22"/><text class="cls-9" transform="matrix(0.96, -0.27, 0.27, 0.96, 135.98, 16.54)">★</text><text class="cls-10" transform="translate(146.88 15.94) rotate(28.46)">★</text></g></g></svg>